<svg width="36" height="36" viewBox="0 0 36 36" fill="none" xmlns="http://www.w3.org/2000/svg">
<circle cx="18" cy="18" r="18" fill="#00A127" fill-opacity="0.3"/>
<path d="M25.0604 18.4394C25.3336 18.7223 25.4848 19.1012 25.4814 19.4945C25.478 19.8878 25.3202 20.264 25.0421 20.5421C24.764 20.8202 24.3878 20.978 23.9945 20.9814C23.6012 20.9848 23.2223 20.8336 22.9394 20.5604L17.9999 15.6209L13.0604 20.5604C12.7775 20.8336 12.3986 20.9848 12.0053 20.9814C11.612 20.978 11.2358 20.8202 10.9577 20.5421C10.6795 20.264 10.5218 19.8878 10.5184 19.4945C10.515 19.1012 10.6661 18.7223 10.9394 18.4394L15.8789 13.4999C16.4415 12.9375 17.2044 12.6215 17.9999 12.6215C18.7954 12.6215 19.5583 12.9375 20.1209 13.4999L25.0604 18.4394Z" fill="#00A127"/>
</svg>
