<svg width="36" height="36" viewBox="0 0 36 36" fill="none" xmlns="http://www.w3.org/2000/svg">
<circle cx="18" cy="18" r="18" fill="#FF3E70" fill-opacity="0.3"/>
<path d="M10.9396 17.5605C10.6664 17.2776 10.5152 16.8987 10.5186 16.5054C10.522 16.1121 10.6798 15.7359 10.9579 15.4578C11.236 15.1797 11.6122 15.0219 12.0055 15.0185C12.3988 15.0151 12.7777 15.1663 13.0606 15.4395L18.0001 20.379L22.9396 15.4395C23.2225 15.1663 23.6014 15.0151 23.9947 15.0185C24.388 15.0219 24.7642 15.1797 25.0423 15.4578C25.3205 15.7359 25.4782 16.1121 25.4816 16.5054C25.485 16.8987 25.3339 17.2776 25.0606 17.5605L20.1211 22.5C19.5585 23.0624 18.7956 23.3784 18.0001 23.3784C17.2046 23.3784 16.4417 23.0624 15.8791 22.5L10.9396 17.5605Z" fill="#FF3E70"/>
</svg>
