<svg width="14" height="14" viewBox="0 0 14 14" fill="none" xmlns="http://www.w3.org/2000/svg">
<g clip-path="url(#clip0_54_53)">
<path d="M7.88961 12.6C7.77336 12.7871 7.60732 12.9423 7.40796 13.0501C7.20861 13.158 6.98287 13.2147 6.75314 13.2147C6.52341 13.2147 6.29767 13.158 6.09832 13.0501C5.89897 12.9423 5.73293 12.7871 5.61667 12.6M10.7061 4.5111C10.7061 3.52096 10.2896 2.57137 9.54829 1.87124C8.80697 1.1711 7.80153 0.777771 6.75314 0.777771C5.70476 0.777771 4.69931 1.1711 3.95799 1.87124C3.21667 2.57137 2.8002 3.52096 2.8002 4.5111C2.8002 8.86666 0.82373 10.1111 0.82373 10.1111H12.6826C12.6826 10.1111 10.7061 8.86666 10.7061 4.5111Z" stroke="black" stroke-width="1.6" stroke-linecap="round" stroke-linejoin="round"/>
</g>
<defs>
<clipPath id="clip0_54_53">
<rect width="14" height="14" fill="white"/>
</clipPath>
</defs>
</svg>
