<svg width="40" height="40" viewBox="0 0 40 40" fill="none" xmlns="http://www.w3.org/2000/svg">
<path opacity="0.2" d="M20 38C29.9411 38 38 29.9411 38 20C38 10.0589 29.9411 2 20 2C10.0589 2 2 10.0589 2 20C2 29.9411 10.0589 38 20 38Z" fill="#FFA84F"/>
<path d="M26.4 16.111H13.6C12.7163 16.111 12 16.8274 12 17.711V25.4C12 26.2837 12.7163 27 13.6 27H26.4C27.2837 27 28 26.2837 28 25.4V17.711C28 16.8274 27.2837 16.111 26.4 16.111Z" stroke="#FFA84F" stroke-width="1.6" stroke-linecap="round" stroke-linejoin="round"/>
<path d="M23.4 27V14.556C23.4 13.696 22.684 13 21.8 13H18.6C17.716 13 17 13.696 17 14.556V27" stroke="#FFA84F" stroke-width="1.6" stroke-linecap="round" stroke-linejoin="round"/>
</svg>
