<svg width="156" height="28" viewBox="0 0 156 28" fill="none" xmlns="http://www.w3.org/2000/svg">
<path d="M37.6313 11C38.6352 11 39.5534 11.1688 40.3859 11.5064C41.2185 11.8199 41.9286 12.2901 42.5162 12.917C43.1284 13.5199 43.5936 14.2553 43.9119 15.1234C44.2547 15.9915 44.4261 16.9681 44.4261 18.0532V27.8192H40.2023V18.5957C40.2023 17.5106 39.8717 16.6426 39.2106 15.9915C38.574 15.3163 37.7415 14.9787 36.7131 14.9787C35.6846 14.9787 34.8399 15.3163 34.1788 15.9915C33.5421 16.6426 33.2238 17.5106 33.2238 18.5957V27.8192H29V11.1809H32.122L32.8565 12.8085C33.2728 12.4709 33.7258 12.1695 34.2155 11.9043C34.6318 11.6872 35.1215 11.4823 35.6846 11.2894C36.2723 11.0965 36.9212 11 37.6313 11Z" fill="black"/>
<path d="M55.2755 11C56.2304 11 57.1119 11.1688 57.9199 11.5064C58.728 11.8199 59.4258 12.266 60.0135 12.8447C60.6011 13.4234 61.0541 14.1106 61.3725 14.9064C61.7153 15.7021 61.8867 16.5702 61.8867 17.5106V27.8192H58.7647L58.0301 26.1915C57.6384 26.5291 57.2099 26.8305 56.7446 27.0957C56.3284 27.3369 55.8264 27.5539 55.2387 27.7468C54.6511 27.9156 53.99 28 53.2554 28C51.4189 28 50.011 27.566 49.0316 26.6979C48.0521 25.8057 47.5624 24.6723 47.5624 23.2979C47.5624 22.478 47.7216 21.7305 48.0399 21.0553C48.3827 20.356 48.9459 19.7652 49.7294 19.283C50.513 18.7766 51.5414 18.3908 52.8146 18.1255C54.1124 17.8362 55.7285 17.6915 57.6628 17.6915C57.6628 16.7752 57.4057 16.0638 56.8915 15.5574C56.4018 15.0511 55.7407 14.7979 54.9082 14.7979C54.345 14.7979 53.892 14.8943 53.5492 15.0872C53.2309 15.2801 52.9738 15.4851 52.7779 15.7021C52.5575 15.9674 52.4106 16.2688 52.3372 16.6064H48.1133C48.2113 15.8348 48.4317 15.1113 48.7745 14.4362C49.1418 13.761 49.6315 13.1702 50.2436 12.6638C50.8558 12.1574 51.5781 11.7596 52.4106 11.4702C53.2676 11.1567 54.2226 11 55.2755 11ZM53.99 24.7447C55.0918 24.7447 55.9733 24.4312 56.6344 23.8043C57.32 23.1532 57.6628 22.3213 57.6628 21.3085V20.5851C56.4141 20.5851 55.4101 20.6454 54.6511 20.766C53.892 20.8624 53.2921 21.0191 52.8514 21.2362C52.4351 21.4291 52.1535 21.6702 52.0066 21.9596C51.8597 22.2489 51.7862 22.5745 51.7862 22.9362C51.7862 23.3943 51.9944 23.8163 52.4106 24.2021C52.8269 24.5638 53.3533 24.7447 53.99 24.7447Z" fill="black"/>
<path d="M74.3601 11C75.364 11 76.2823 11.1688 77.1148 11.5064C77.9473 11.8199 78.6574 12.2901 79.245 12.917C79.8572 13.5199 80.3224 14.2553 80.6407 15.1234C80.9835 15.9915 81.1549 16.9681 81.1549 18.0532V27.8192H76.9311V18.5957C76.9311 17.5106 76.6006 16.6426 75.9395 15.9915C75.3028 15.3163 74.4703 14.9787 73.4419 14.9787C72.4135 14.9787 71.5687 15.3163 70.9076 15.9915C70.271 16.6426 69.9527 17.5106 69.9527 18.5957V27.8192H65.7288V11.1809H68.8508L69.5854 12.8085C70.0016 12.4709 70.4546 12.1695 70.9443 11.9043C71.3606 11.6872 71.8503 11.4823 72.4135 11.2894C73.0011 11.0965 73.65 11 74.3601 11Z" fill="black"/>
<path d="M100.452 21.6702C100.256 22.4901 99.9255 23.2858 99.4603 24.0574C98.995 24.805 98.4196 25.4801 97.734 26.083C97.0484 26.6617 96.2648 27.1319 95.3834 27.4936C94.5019 27.8312 93.5592 28 92.5552 28C91.4044 28 90.3148 27.783 89.2864 27.3489C88.2824 26.8908 87.3887 26.2759 86.6052 25.5043C85.8461 24.7326 85.234 23.8404 84.7687 22.8277C84.328 21.7908 84.1076 20.6816 84.1076 19.5C84.1076 18.3184 84.328 17.2213 84.7687 16.2085C85.234 15.1716 85.8461 14.2674 86.6052 13.4957C87.3887 12.7241 88.2824 12.1213 89.2864 11.6872C90.3148 11.2291 91.4044 11 92.5552 11C93.5592 11 94.5019 11.1809 95.3834 11.5426C96.2648 11.8801 97.0484 12.3504 97.734 12.9532C98.4196 13.5319 98.995 14.2071 99.4603 14.9787C99.9255 15.7262 100.256 16.5099 100.452 17.3298H96.2281C96.0322 16.8957 95.7629 16.5099 95.4201 16.1723C95.1263 15.883 94.7467 15.6177 94.2815 15.3766C93.8163 15.1113 93.2408 14.9787 92.5552 14.9787C91.3554 14.9787 90.3515 15.3887 89.5435 16.2085C88.7354 17.0284 88.3314 18.1255 88.3314 19.5C88.3314 20.8745 88.7354 21.9716 89.5435 22.7915C90.3515 23.6113 91.3554 24.0213 92.5552 24.0213C93.2408 24.0213 93.8163 23.9007 94.2815 23.6596C94.7467 23.4184 95.1263 23.1532 95.4201 22.8638C95.7629 22.5262 96.0322 22.1284 96.2281 21.6702H100.452Z" fill="black"/>
<path d="M118.449 22.7553C118.229 23.3823 117.886 24.0092 117.421 24.6362C116.98 25.2631 116.429 25.8298 115.768 26.3362C115.131 26.8184 114.397 27.2163 113.564 27.5298C112.756 27.8433 111.875 28 110.92 28C109.769 28 108.679 27.783 107.651 27.3489C106.647 26.8908 105.753 26.2759 104.97 25.5043C104.211 24.7326 103.598 23.8404 103.133 22.8277C102.692 21.7908 102.472 20.6816 102.472 19.5C102.472 18.3184 102.692 17.2213 103.133 16.2085C103.598 15.1716 104.211 14.2674 104.97 13.4957C105.753 12.7241 106.647 12.1213 107.651 11.6872C108.679 11.2291 109.769 11 110.92 11C112.022 11 113.062 11.205 114.042 11.6149C115.021 12.0248 115.878 12.6035 116.613 13.3511C117.347 14.0986 117.923 15.0028 118.339 16.0638C118.78 17.1007 119 18.2461 119 19.5C119 19.6929 118.988 19.8858 118.963 20.0787C118.939 20.2475 118.914 20.4163 118.89 20.5851C118.865 20.778 118.841 20.9589 118.816 21.1277H107.063C107.259 21.9475 107.675 22.6348 108.312 23.1894C108.949 23.744 109.818 24.0213 110.92 24.0213C111.483 24.0213 111.948 23.961 112.315 23.8404C112.707 23.7199 113.038 23.5752 113.307 23.4064C113.601 23.2135 113.846 22.9965 114.042 22.7553H118.449ZM110.92 14.9787C109.818 14.9787 108.912 15.2922 108.202 15.9191C107.516 16.5461 107.075 17.3177 106.879 18.234H114.96C114.764 17.3177 114.311 16.5461 113.601 15.9191C112.915 15.2922 112.022 14.9787 110.92 14.9787Z" fill="black"/>
<path d="M9.07547 14.9606H7V10.9921H9.07547V10.2362C9.07547 9.30394 9.21384 8.45984 9.49057 7.70394C9.79245 6.92284 10.195 6.25512 10.6981 5.70079C11.2264 5.14646 11.8428 4.73071 12.5472 4.45354C13.2767 4.15118 14.0692 4 14.9245 4C15.2013 4 15.4654 4.0252 15.717 4.07559C15.9686 4.10079 16.195 4.13858 16.3962 4.18898C16.6226 4.26457 16.8239 4.32756 17 4.37795V8.15748C16.8994 8.13228 16.7987 8.10709 16.6981 8.08189C16.5975 8.05669 16.4843 8.0315 16.3585 8.0063C16.2327 7.9811 16.0692 7.9685 15.8679 7.9685C15.1132 7.9685 14.5094 8.19528 14.0566 8.64882C13.6289 9.07717 13.4151 9.66929 13.4151 10.4252V10.9921H17V14.9606H13.4151V28H9.07547V14.9606Z" fill="black"/>
<path d="M20 10.9333H24V28H20V10.9333Z" fill="black"/>
<path d="M20 4H24V8.26667H20V4Z" fill="black"/>
<path d="M131.077 7.25635C131.077 7.80973 130.985 8.32161 130.803 8.79199C130.62 9.25684 130.374 9.66081 130.064 10.0039C129.754 10.3415 129.386 10.6071 128.96 10.8008C128.534 10.9889 128.077 11.083 127.59 11.083C127.159 11.083 126.782 11.0138 126.461 10.8755C126.146 10.7316 125.883 10.5739 125.673 10.4023C125.424 10.1976 125.214 9.9707 125.042 9.72168H124.959V13.7227H124.187V3.521H124.702L124.959 4.79102H125.042C125.214 4.54199 125.424 4.31787 125.673 4.11865C125.889 3.9471 126.154 3.79215 126.47 3.65381C126.785 3.50993 127.159 3.43799 127.59 3.43799C128.077 3.43799 128.534 3.53483 128.96 3.72852C129.386 3.91667 129.754 4.18229 130.064 4.52539C130.374 4.86296 130.62 5.26416 130.803 5.729C130.985 6.19385 131.077 6.70296 131.077 7.25635ZM127.59 10.3193C127.956 10.3193 128.301 10.2446 128.628 10.0952C128.954 9.94027 129.242 9.72721 129.491 9.45605C129.74 9.17936 129.939 8.85563 130.089 8.48486C130.238 8.10856 130.313 7.69906 130.313 7.25635C130.313 6.81364 130.238 6.4069 130.089 6.03613C129.939 5.65983 129.74 5.3361 129.491 5.06494C129.242 4.79378 128.952 4.5835 128.62 4.43408C128.293 4.27913 127.95 4.20166 127.59 4.20166C127.225 4.20166 126.879 4.27913 126.553 4.43408C126.226 4.5835 125.938 4.79378 125.689 5.06494C125.44 5.3361 125.241 5.65983 125.092 6.03613C124.942 6.41243 124.868 6.81917 124.868 7.25635C124.868 7.69906 124.942 8.10856 125.092 8.48486C125.241 8.85563 125.44 9.17936 125.689 9.45605C125.938 9.72721 126.226 9.94027 126.553 10.0952C126.879 10.2446 127.225 10.3193 127.59 10.3193ZM135.916 11.083C135.484 11.083 135.086 11.0083 134.721 10.8589C134.361 10.7039 134.051 10.4881 133.791 10.2114C133.531 9.93473 133.323 9.6027 133.168 9.21533C133.014 8.82796 132.936 8.40186 132.936 7.93701V3.521H133.708V7.93701C133.708 8.27458 133.766 8.59001 133.882 8.8833C134.004 9.17106 134.167 9.42285 134.372 9.63867C134.582 9.85449 134.826 10.0233 135.103 10.145C135.385 10.2612 135.684 10.3193 135.999 10.3193C136.337 10.3193 136.649 10.2612 136.937 10.145C137.23 10.0233 137.485 9.85449 137.701 9.63867C137.917 9.42285 138.083 9.17106 138.199 8.8833C138.32 8.59554 138.381 8.28011 138.381 7.93701V3.521H139.145V11H138.63L138.381 9.896H138.29C138.13 10.1229 137.944 10.3221 137.734 10.4937C137.54 10.6541 137.297 10.7925 137.003 10.9087C136.71 11.0249 136.348 11.083 135.916 11.083ZM146.367 8.875C146.367 9.16829 146.303 9.45052 146.176 9.72168C146.054 9.9873 145.882 10.2225 145.661 10.4272C145.44 10.6265 145.171 10.7869 144.856 10.9087C144.546 11.0249 144.2 11.083 143.818 11.083C143.409 11.083 143.041 11.0249 142.714 10.9087C142.393 10.7869 142.117 10.6209 141.884 10.4106C141.652 10.2004 141.466 9.95687 141.328 9.68018C141.195 9.40348 141.118 9.10742 141.096 8.79199H141.859C141.948 9.2679 142.144 9.64144 142.449 9.9126C142.759 10.1838 143.215 10.3193 143.818 10.3193C144.372 10.3193 144.806 10.1755 145.122 9.8877C145.443 9.59993 145.603 9.26237 145.603 8.875C145.603 8.53743 145.495 8.27734 145.279 8.09473C145.063 7.91211 144.795 7.77376 144.474 7.67969C144.159 7.58008 143.81 7.4943 143.428 7.42236C143.052 7.35042 142.703 7.24528 142.382 7.10693C142.067 6.96859 141.801 6.7749 141.585 6.52588C141.375 6.27686 141.27 5.92546 141.27 5.47168C141.27 5.20052 141.325 4.94043 141.436 4.69141C141.552 4.44238 141.713 4.22656 141.917 4.04395C142.128 3.85579 142.385 3.70915 142.689 3.604C142.999 3.49333 143.348 3.43799 143.735 3.43799C144.101 3.43799 144.433 3.49886 144.731 3.62061C145.03 3.73682 145.293 3.89176 145.52 4.08545C145.747 4.2736 145.924 4.49772 146.051 4.75781C146.184 5.0179 146.262 5.2863 146.284 5.56299H145.52C145.431 5.17562 145.238 4.85189 144.939 4.5918C144.646 4.33171 144.244 4.20166 143.735 4.20166C143.182 4.20166 142.759 4.32894 142.465 4.5835C142.178 4.83805 142.034 5.13411 142.034 5.47168C142.034 5.79818 142.142 6.04443 142.357 6.21045C142.573 6.37646 142.839 6.50651 143.154 6.60059C143.47 6.68913 143.818 6.77214 144.2 6.84961C144.582 6.92155 144.931 7.02946 145.246 7.17334C145.562 7.31169 145.827 7.5109 146.043 7.771C146.259 8.03109 146.367 8.39909 146.367 8.875ZM151.455 3.43799C151.876 3.43799 152.269 3.51546 152.634 3.67041C153.005 3.81982 153.32 4.03288 153.58 4.30957C153.846 4.58626 154.053 4.91829 154.203 5.30566C154.358 5.69303 154.435 6.11914 154.435 6.58398V11H153.671V6.58398C153.671 6.24642 153.611 5.93376 153.489 5.646C153.373 5.3527 153.209 5.09814 152.999 4.88232C152.789 4.6665 152.545 4.50049 152.269 4.38428C151.992 4.26253 151.693 4.20166 151.372 4.20166C151.035 4.20166 150.719 4.26253 150.426 4.38428C150.138 4.50049 149.886 4.6665 149.67 4.88232C149.46 5.09814 149.294 5.34993 149.172 5.6377C149.056 5.92546 148.998 6.24089 148.998 6.58398V11H148.226V0.291992H148.998V4.625H149.081C149.219 4.40918 149.399 4.20996 149.621 4.02734C149.814 3.87793 150.061 3.74235 150.359 3.62061C150.658 3.49886 151.023 3.43799 151.455 3.43799Z" fill="black" fill-opacity="0.4"/>
<rect y="24" width="4" height="4" fill="#9443FB"/>
</svg>
